<svg width="149" height="174" viewBox="0 0 149 174" fill="none" xmlns="http://www.w3.org/2000/svg">
<path d="M148.518 25.4817C136.351 13.3146 120.849 5.02861 103.973 1.67169C87.0965 -1.68523 69.6037 0.0376626 53.7066 6.62248C37.8094 13.2073 24.2218 24.3583 14.6622 38.6654C5.10247 52.9725 1.01698e-05 69.793 7.60578e-06 87C5.04174e-06 104.207 5.10246 121.028 14.6621 135.335C24.2218 149.642 37.8094 160.793 53.7065 167.378C69.6037 173.962 87.0965 175.685 103.973 172.328C120.849 168.971 136.351 160.685 148.518 148.518L126.628 126.628C118.79 134.466 108.805 139.803 97.9334 141.966C87.0622 144.128 75.7939 143.018 65.5534 138.777C55.313 134.535 46.5603 127.352 40.4023 118.136C34.2442 108.919 30.9574 98.0842 30.9574 87C30.9574 75.9158 34.2442 65.0805 40.4023 55.8644C46.5603 46.6482 55.313 39.4651 65.5534 35.2234C75.7939 30.9816 87.0622 29.8718 97.9334 32.0342C108.805 34.1966 118.79 39.5342 126.628 47.3719L148.518 25.4817Z" fill="url(#paint0_angular_4_2)"/>
<defs>
<radialGradient id="paint0_angular_4_2" cx="0" cy="0" r="1" gradientUnits="userSpaceOnUse" gradientTransform="translate(87 87) rotate(-46.3972) scale(87)">
<stop stop-color="#FF0000"/>
<stop offset="0.09375" stop-color="#FF6B00"/>
<stop offset="0.192708" stop-color="#FFE600"/>
<stop offset="0.296875" stop-color="#24FF00"/>
<stop offset="0.401042" stop-color="#00AC78"/>
<stop offset="0.5" stop-color="#3D6CB4"/>
<stop offset="0.598958" stop-color="#8E398F"/>
<stop offset="0.692708" stop-color="#B6284C"/>
<stop offset="1" stop-color="#FF0000"/>
</radialGradient>
</defs>
</svg>
